<?xml version="1.0" encoding="UTF-8"?> <svg xmlns="http://www.w3.org/2000/svg" id="uuid-ecd8284e-1d0e-483b-b10d-e0c8d87cfeff" data-name="Ebene_1" viewBox="0 0 1274.58 645.97"><path d="M1075.79,196.33c-.14-.58-1.22-.92-1.36-1.5,1.27-3.98,6.79-8.47,6.66-9.28-.07-.45-3.59-.24-7.46.49-6.44,1.21,1.2-2.04.55-2.91-2.24.32-4.09,2.51-9.08,3.96-10.72,3.11-17.38,5.36-26.84,7.04-.43.08-.57-.97-1.02-.89-3.51-.77-48.89,7.74-112.59,21.75-41.17,9.06-81.66,21.06-122.45,31.79-48.63,12.8-97.31,25.45-145.86,38.54-59.52,16.04-118.93,32.47-178.38,48.75-7.79,2.13-15.71,3.93-23.28,6.68-12.78,4.66-24.86,9.09-37.68,13.6-15.63,5.5-36.09,11.1-51.33,17.45-39.93,16.65-69.47,27.72-115.26,51.06-10.87,5.54-21.77,11.16-32.35,17.28-18.94,10.94-37.75,22.12-56.47,33.45-13.18,7.98-26.2,16.24-39.12,24.64-2.64,1.72-11.43,8.93-11,9.39.43.46,23.29-15.13,34.55-17.81,2.8-.94,2.95.84,1.01,1.96-1.13.65-35.45,18.95-35.65,18.83s1.27-3.31,1.22-3.85c-.4.27-28.92,14.8-28.34,16.28.64.97,25.49-8.05,27.95-9.09,21.11-8.91,42-18.37,63.26-26.89,6.55-2.62,14.06-2.83,21.13-4.14-15.61,10.33-31.64,19.05-47.4,28.21-9.18,5.34-37.67,19.45-37.29,20.33s20.59-7.91,21.05-7.27-11.32,4.77-10.95,5.65,20.08-7.13,29.43-10.77c1.54-.81,1.49,1.04.6,1.4-10.65,5.1-43.37,20.29-42.24,22.19s71.64-29.87,101.58-42.91c4.61-1.58,4.01,1.12,1.14,2.6-10.65,4.65-47.9,19.15-48.39,19.42s-1.5,1.13.33.74,48.33-17.52,64.28-23.55c2.58-.42,2.71,1,1.05,2.42-4.18,2.33-57.64,26.56-61.81,28.89,2.2.23,3.97-.45,5.72-1.19,42.9-18.17,135.04-58.31,177.99-76.34,6.48-2.72,13.38-4.43,20.09-6.61.14.46.27.91.41,1.37-.96.74-1.92,1.48-3.54,2.73,5.85-1.09,10.88-1.67,15.68-3.04,4.81-1.37,9.42-3.45,14.06-5.38,8.01-3.33,15.84-7.1,23.97-10.1,7.78-2.87,15.84-4.99,23.79-7.43,67-20.54,132.51-46.21,202.86-54.87,24.39-3,48.5-9.61,72.26-16.26,49.21-13.78,97.98-29.14,147.17-43,48.6-13.7,97.11-26.85,143.83-46.98,8.76-3.78,46.37-19.82,46.76-19.98s1.34-1.6-.69-1.12c-2.85.73-48.06,19.5-48.64,19.11.26-4.44,7.36-5.37,9.34-8.03,2.88-3.88,4.47-8.93-5.53-5.68-.23-.33,3.94-2.82,7.9-4.84,18.5-9.39,36.26-20.19,54.29-30.46,2.73-1.56,5.73-3.68,8.4-5.3.9-.55,4.96-3.03,5.06-3.8-.25-.12-4.31,1.83-4.35,1.74-.77-1.68-1.21-2.51,3.35-6.12,12.13-9.63,1.1-4.57.77-5.41-.5-1.31-7.7,1.99-13.15,3.05Z" style="fill: #04368b;"></path><path d="M897.51,366.37c-19.62,3.31-39.24,6.62-59.36,10.01,1.94.29,21.18-3.12,21.69-.47-35.42,3.34-66.21,8.12-90.18,18.65,2.23.44,11.87-3.52,13.35-1.59-.06.64-20.35,6.73-26.47,8.62.02.64.05,1.27.07,1.91,1.88.43,3.91,1.55,5.62,1.18,9.57-2.1,19.04-4.66,28.59-6.87,14.36-3.33,26.75-8.61,45.35-9.4,1.37.8-4.78,2.99-6.26,3.91-.82.44.38,1.09,2.19,1.13,25.18-6.07,57.85-4.98,75.43-14.52,1.48-1.03,5.86,2.51.13,3.93-9.49,2.24-18.13,4.98-27.72,6.66-26.46,4.65-53.28,7.66-79.41,13.66-19.75,8.32-37.62,12.58-56.41,19-5.31,1.81-10.71,3.33-15.77,6.23,10.54-2.7,22.96-6.19,29.85-8.64,2.96.06,3.99,2.13,2.28,3.01-19.32,6.1-38.64,12.19-57.95,18.29.12.54.25,1.08.37,1.61,21.68-4.47,72.88-17.02,94.55-21.49.88-.09.97.94.38,1.32-3.62,1.22-36.74,10.65-40.4,11.74-14.82,4.44-42.19,10.39-44.93,15.18-6.16,5.02-18.77,5.7-28.54,9.1-28.57,9.95-57.1,20.03-85.76,29.71-19.26,6.5-39.04,11.57-58.03,18.74-51.64,19.51-106.2,30.2-156.89,52.6-25.97,11.47-52.12,22.83-78.99,31.88-45.38,15.28-91.3,28.97-137.2,42.63-26.79,7.64-21.9,3.21-32.81,5.12-10.91,1.91-21.63,5.13-32.59,6.34-9.38,1.03-18.99-.15-28.49-.31-4.03-.07-1.84-3.1-4.92-5.31-1.94-5.06,7.14-2.94,7.93-6.52.25-1.13-.62-2.35.31-3.05s4.35-.58,5.38-1.22c3.36-2.09,7.13-3.52,11.75-3.46,1.3.01,5.02.68,3.61-3.62-2.24-1.17-6.35.77-7.72-.6,8.13-2.93,33.92-11.36,44.09-13.66.62-.18.62-.89-.17-.83-14.21,2.12-39.87,7.31-55.85,10.61-.69.14-.81-1.41-.9-1.56-1.29-2.43-4.41.61-6.64.94-2.9-4.57,2.73-4.13,3.38-6.56-.52-.38-4.56.68-3.99-2.05,10.04-7.99,24.24-17.16,31.6-19.85,18.39-9.61,37.6-18.07,56.45-26.74,11.29-5.19,23.35-8.7,34.91-13.35,46.65-18.78,93.11-38.05,139.9-56.49,41.42-16.32,84.25-28.57,128.05-35.92,33.94-5.69,67.02-14.31,99.66-24.33,67.04-20.56,136.03-32.54,204.09-48.59,31.57-7.44,63.78-11.41,96.17-13.86,9.14-.69,18.17-2.86,27.26-4.33,3.2-.52,6.4-.96,9.61-1.44.11.97.23,1.94.34,2.91Z" style="fill: #e3001b;"></path><path d="M85.66,205.33c-18.11,7.67-35,14.81-51.88,21.98-10.81,4.59-28.87-2.96-33.22-13.75-1.83-4.55,1.13-5.86,4.28-7.19,18.13-7.66,36.27-15.31,54.42-22.93,7.87-3.3,15.7-6.7,23.67-9.72,3.9-1.48,5.98-3.34,6.05-7.94.12-7.32,2.7-9.56,10.15-9.8,3.03-.1,6.4-.27,9.07.86,7.36,3.13,13.75.97,20.63-1.77,87.99-35.08,176.36-69.12,267.41-95.64,22.09-6.43,44.43-11.74,67.54-12.9,11.6-.58,23.17,5.57,26.85,14.18,2.46,5.74,1.17,8.55-4.77,9.11-43.95,4.18-85.88,16.91-127.01,31.77-74.65,26.98-148.75,55.49-223.16,83.16-4.94,1.84-5.77,4.83-6.11,9.35-6.27,83.66-8.08,167.49-9.44,251.33-.18,11.16-3.44,14.57-14.64,14.07-4.73-.21-9.59-1.19-14.06-2.76-11.46-4.01-13.85-7.79-13.5-19.93,1.85-64.34,3.68-128.67,5.65-193.01.38-12.43,1.32-24.84,2.07-38.48Z"></path><path d="M326.32,254.48c1.12-2.05,2.31-4.07,3.35-6.16,24.8-49.71,49.61-99.42,68.94-151.63,2.44-6.59,5.43-7.85,11.46-4.34,9.84,5.73,16.85,14.14,19.73,25.17.95,3.63-.16,8.27-1.57,11.98-21.96,58-48.56,113.84-78.72,168-4.57,8.21-8.76,16.7-14.07,24.42-8.76,12.74-20.26,13.59-31.46,2.81-10.15-9.76-14.45-22.11-15.26-35.96-1.45-24.7,2.23-48.92,6.62-73.06,5.1-27.98,10.41-55.91,15.77-83.84,2.13-11.08,7.47-13.43,16.34-6.57,11.84,9.15,18.96,18.57,14.89,36.59-6.61,29.21-11.32,58.85-16.81,88.31-.23,1.26-.24,2.56-.36,3.84.39.15.77.3,1.16.45Z"></path><path d="M182.49,284.62c8.75-5.89,16.36-10.87,23.83-16.07,10.9-7.58,22.68-12.47,36.18-11.36,4.94.4,10.04,1.43,14.61,3.29,15.95,6.51,21.36,18.56,16.12,34.99-1.12,3.52-2.43,7.08-4.26,10.28-23.71,41.48-56.31,73.34-100.66,92.32-10.95,4.69-21.16,2.35-30.15-4.75-7.08-5.59-6.05-10.06,2.17-13.71,40.53-18,72.26-45.58,92.57-85.5.79-1.55,1.47-3.17,2.12-4.79.13-.32-.08-.78-.2-1.7-7.57,4.64-14.84,9.34-22.33,13.65-13.07,7.52-26.88,10.18-41.64,5.61-16.55-5.12-25.61-17.44-25.29-34.79.27-14.61,4.91-27.97,12.75-40.14,18.89-29.31,43.87-52.73,71.97-72.94,9.35-6.72,28.79-1.62,34.6,8.18,2.14,3.62.33,5.59-2.34,7.64-6.94,5.34-13.95,10.59-20.64,16.22-19.55,16.42-37.11,34.66-50.21,56.77-6.34,10.71-10.48,22.09-9.18,36.78Z"></path><path d="M459.21,186.93c-6.89,4.04-12.51,7.29-18.07,10.62-2.06,1.23-3.85,3.18-6.05,3.86-2.34.72-4.39,2.11-7.55.4-1.97-2.91,1.05-5.68,2.63-7.7,1.8-2.32,4.69-3.97,7.31-5.43,17.55-9.81,29.81-18.78,50.63-24.08,8.3-1.87,15-3.12,19.92,3.57,4.6,6.26,1.84,13.47-2.25,18.96-4.63,6.22-10.59,11.47-16.08,17.03-1.29,1.31-3.02,2.2-5.11,3.68,5.87-.29,10.85-.91,15.81-.71,15.12.59,24.62,13.87,20.51,28.32-5.69,19.99-28.85,35.22-49.38,31.87-3.73-.61-9.61-4.96-10.38-5.94s-.98-4.74.04-5.73c.69-.87,1.81-4.46,6.9-1.5,18.93,7.28,36.65-1.1,43.73-20.85,3.18-8.88-1.67-17.02-11.35-16.59-9.25.41-18.44,2.97-27.59,4.86-9.68,2-9.68,1.54-11.16,13.18-1.82,14.3-4.06,28.58-6.39,42.82-.45,2.73-1.45,5.58-2.99,7.83-1.01,1.47-2.04,2.9-5.24,2.9-1.95-.37-1.96-4.06-1.66-5.89,2.06-12.72,4.5-25.39,6.76-38.08.81-4.52,4.23-19.65,3.53-20.36-5.41-.09-7.29-8.3,1.35-11.04,1.63-5.84-.1-9.76,1.26-16.88.45-2.33.49-4.74.91-9.12ZM465.64,209.49c13.23-7.57,24.43-15.2,32.04-27.02,1.21-1.88,2.91-5.82,1.17-7.22-2.71-2.11-4.82-1.16-6.84-.51-9.48,3.03-21.29,7.3-28.85,9.96,5.22,4.32,2.47,15.93,2.47,24.79Z"></path><path d="M771.73,172.72c1.2-1.75,2.56-3.4,3.56-5.25,9.6-17.63,14.53-36.59,14.76-56.56,0-15.11-4.13-11.12-4.65-16.05-.45-4.27.9-7.56,2.62-11.49,1.03-2.35,4.23-4.79,7.55-4.79,2.66,0,5.07,3.03,5.03,4.65-.35,15.05-.28,30.23-2.36,45.09-1.71,12.2-4.71,24.11-9.86,35.83-2.74,6.56-5.97,10.95-14.1,16.94-6.66,4.89-13.21,1.39-13.83-6.99-.66-8.91-.26-17.91-.32-26.86,0-1.3.3-5.86,0-5.92-.57-.11-3.06,4.15-3.88,5.63-7.91,14.38-15.68,28.82-23.71,43.13-1.68,2.99-3.8,6.01-6.44,8.11-4.84,3.86-10.09,1.99-10.3-4.13-.91-10.41-.74-19.11,1.73-27.9,7.52-31.82,15.05-50.98,20.08-60.95,1.11-3.23,3.02-6.53,5.47-8.83,1.67-1.56,4.55-4.72,7.86-3,3.13,2.15.76,6.54-.27,8.48-12.37,23.4-20.76,48.11-25.17,74.2-.25,1.51-.42,3.04-.53,4.56-.04.6.13,2.71.45,2.87.34.15,2.49-3.16,3.26-4.54,7.77-13.95,15.39-27.99,23.27-41.87,2.14-3.77,4.63-7.55,7.76-10.48,1.69-1.59,5.41-2.41,7.56-1.67,1.66.57,3.26,4.12,3.22,6.32-.17,8.96-1.17,17.91-1.47,26.87-.16,4.71.5,9.44.78,14.16.42.95,1.17,1.07,1.9.43Z"></path><path d="M641.99,194.45c-4.67,7.57-8.37,13.89-12.39,20.01-4.12,6.27-9.54,10.73-17.4,11.63-6.48.74-9.08-.92-9.39-7.56-.21-4.53.09-9.23,1.06-13.65,3.92-17.75,12.87-32.87,25.1-46.14,5.32-5.77,11.39-8.95,19.74-4.62,5.51-11.24,7.32-23.03,9.09-34.84.26-1.73.34-3.71.75-5.1.97-3.3,2.45-5.49,6.79-5.48,3.27-.28,3.4,5.29,2.94,7.49-2.93,14.13-7.12,28.02-9.64,42.2-3.13,17.61-4.96,35.45-7.63,53.16-.29,1.92-1.2,5.16-3.59,5.34-2.57-.17-4.86-3.48-5.17-5.55-.76-4.99-.25-10.18-.25-16.89ZM612.24,216.72c11.19-2.58,33.58-40.72,33.45-56.3-13.89-.57-37.17,38.19-33.45,56.3Z"></path><path d="M996.39,99.06c4.75-6.12,9.31-12.4,14.32-18.31,5.08-6,10.52-11.7,15.97-17.37,1.79-1.87,4.18-3.57,6.22-4.61,8.24-4.21,12.84-1.95,14.79.42,2.19,2.66,3.12,6.41.95,12.3-.69,3.38-3.17,6.6-4.94,9.86-6.4,11.37-11.12,16.5-12.16,34.03-.25,2.87-2.48,5.79-5.92,5.55-3.61-.93-4.02-5.35-3.41-7.14,1.74-11.49,5.16-21.08,13.96-37.31,5.24-9.26,5.22-11.07,3.16-12.26s-8.1,4.58-10.37,7.48c-13.47,17.19-26.5,34.73-39.65,52.17-1.71,2.26-2.96,5.07-5.05,6.77s-5.18,2.06-6.75,1.14c-1.34-.79-2.54-3.79-1.4-6.54,9.95-27.52,20.2-54.94,30.34-82.4,1.21-3.27,1.88-6.78,3.38-9.9.9-1.87,2.22-4.38,4.44-4.78,3.32-.83,4.02,3.96,3.99,5.93-.08,4.28-1.12,8.8-2.62,12.81-5.73,15.35-11.86,30.55-17.82,45.81-.77,1.97-1.46,3.97-2.19,5.96.26.13.52.27.78.4Z"></path><path d="M941.74,129.93c7.5-3.54,7.33-.57,11.09.63,6.34,2.02,7.38-.39,7.33-5.16-.1-10.84-.11-32.48-.73-33.97s-1.37-.98-1.86-.35c-.92,1.27-2.06,3.94-2.89,5.26-8.6,13.71-16.58,27.88-26.05,40.96-2.9,4-4.74,7.78-12.08,7.91-1.83.03-1.35,3.54-4.68,4.42-1.03.37-4.21-1.2-5.24-4.07-1.74-4.83-1.15-10.62.18-15.46,4.14-15.17,8.99-30.15,13.99-45.07.69-2.06,3.22-5.89,5.68-4.96,3.58.1,3.86,5.36,3.43,7.58-1.37,7.04-3.81,13.87-5.98,20.74-3.2,10.14-7.37,18.77-8.99,30.93.02.84.5.93,1.38.97.54.09,1.62-2.2,2.36-3.37,11.57-18.55,23.2-37.05,34.76-55.6.79-1.26,1.04-2.85,1.68-4.21,1.37-2.49,1.66-4.55,4.37-4.55,3.86,0,5.2,2.39,5.63,4.25,4.01,17.13,6.3,34.46,2.95,52.01-1.04,5.44-3.53,10.24-9.86,10.71-6.87.51-12.72-.84-17.14-6.77-.5-1.03-.35-2.17.71-2.83Z"></path><path d="M584.84,173.51c2.25-2.74,3.85-4.69,5.46-6.64.61-.39,3.45-1.16,4.99,1.74.64,3.46.33,6.23-.06,9.57-2.12,18.19-4.62,36.35-7.3,54.46,0,2.68-2.18,4.92-4.08,4.92-2.4-.03-4.52-3.35-4.54-5.06-.08-5.87.87-11.76,1.4-17.64.2-2.3.31-4.61.57-8.67-2.19,2.77-3.41,4.14-4.44,5.65-4.32,6.32-8.27,12.93-12.97,18.95-3.74,4.79-8,9.34-12.69,13.19-5.02,4.12-11.01,6.99-17.47,2.8-6.34-4.11-5.74-10.68-4.15-16.61,5.75-21.47,16.98-39.74,33.82-54.34,6.66-5.78,14.08-8.02,21.49-2.33ZM537.04,233.76c-.14,5.32,3.04,7.42,7.18,4.77,2.91-1.86,5.85-4.14,7.82-6.91,9.86-13.88,19.45-27.95,29.03-42.03,1.2-1.77,1.89-3.95,2.55-6.02,1.17-3.68-.64-6.09-4.13-5.25-4.3,1.04-9.16,2.44-12.28,5.31-14.12,13.01-23.51,29.19-29.49,47.38-.34,1.03-.52,2.12-.67,2.75Z"></path><path d="M1230.43,41.14c6.38-6.03,12.87-13.48,20.15-19.61,4.99-4.2,12.06-7.79,18.39-4.02,6.65,4.38,6.42,11.79,4.23,18.79-2.59,8.32-5.57,18.88-11.11,30.99-2.13,6.86-.11,8.18-.77,11.96-.4,2.38-3.85,3.84-5.56,3.78-1.84-.06-4.64-1.83-4.85-3.75-.35-3.3.5-8.07,1.61-11.34,2.45-7.24,5.31-14.34,7.94-21.53.97-2.67,1.9-5.44,2.47-8.12,1.07-4.96,2.35-13-1.75-13.43-3.54.17-5.39,2.65-8.92,6.07-13.22,12.8-24.47,26.71-31.74,43.69-1.29,3.01-2.39,6.24-4.37,8.74-1.2,1.52-4.41,2.98-5.86,2.39-1.95-.8-3.96-3.47-4.31-5.6-.39-2.35.87-5.08,1.77-7.5,3.28-8.81,8.28-18.52,11.89-30.57,1.9-5.19,3.13-8.87,2.38-16.9-.62-4.75,1.16-6.3,4.08-6.12,3.51-.09,4.32,3.63,4.54,5.47.65,5.47-.22,11.78-.22,16.62Z"></path><path d="M1160.83,18.76c-2.4-.88-2.58-10.24-4.69-6.82-6.97,12.62-14.57,39.55-13.86,40.84,1.1,3.29,5.6-6.12,10.27-1.45.71.66.67,1.78.32,3.32-.46,2.07-5.64,5.93-12.92,9.93-1.37.75-1.31,3.17-2.2,5.73-7.1,20.45-13.87,41.01-20.78,61.52-.55,1.62-1.04,3.66-2.25,4.55-1.38,1.02-3.86,1.73-5.27,1.15-1.26-.52-2.41-3.02-2.35-4.58.1-2.3,1.3-4.57,2.08-6.83,6.3-18.38,12.93-38.44,19.56-57.77-5.1.53-9.1,1-12.41-.42-1.74-.75-5.34-1.87-5.16-6.1.2-1.51,1.4-3.91,6.55-2.68.74.18,1.69.29,2.56.42,8.55,1.23,10.23.48,12.89-7.94,3.09-9.79,5.26-19.89,8.5-29.62,1.91-5.73,4.34-11.65,8.03-16.3,2.31-2.91,4.44-5.03,11.26-5.68,1.71-.16,3.41,1.1,3.83,5.69.43,4.76,1.89,13.97-3.96,13.05Z"></path><path d="M1162.25,74.05c-.11,8.55,6.67,15.8,14.53,12.3,6.24-2.77,11.45-7.77,17.38-11.34,3.97-3.49,5.83-4.99,8.41-2.33,1.6,2.94-1.3,6.62-3.08,7.89-8.2,6.8-11.61,9.57-22.58,13.91-10.77,4.65-28.41-6.03-23.05-22.53,4.3-13.25,9.45-26.18,20.07-35.48,5.53-4.85,8.8-8.35,19.43-11.42,7.91-2.58,14.82,5.32,11.22,12.79-6.31,15.47-14,25.64-28.76,33.54-3.53,1.89-6.05,2.27-7.76,2.43-1.68.15-5.88-1.12-5.82.26ZM1165.83,65.61c5.15,1.1,23.24-14.81,30.1-27.27,1.75-3,.6-4.76-.76-5.06-1.57-.34-4.76.52-6.5,1.25-8.21,3.47-24.64,30-22.84,31.07Z"></path><path d="M1054.32,92.3c.36-22.22,12.53-41.09,30.57-47.04,11.91-3.93,20.9,2.11,21.02,14.48.16,15.86-4.27,30.53-14.81,42.43-4.41,4.99-10.78,9.13-17.07,11.37-9.91,3.53-16.5-1.13-18.7-11.46-.68-3.18-.7-6.51-1.02-9.77ZM1096.59,65.1c0-3.26.09-4.58-.01-5.88-.65-8.02-2.14-9.34-9.12-6.26-14.16,6.25-25.5,20.48-24.5,37.24.31,5.23,1.97,13.07,5.46,14.81,4.89,1.91,11.79-2.33,15.99-7.31,8.4-9.95,11.38-21.9,12.19-32.6Z"></path><path d="M855.2,122.17c-1,16.6-4.7,29.36-14.66,39.65-1.51,1.56-3.17,3.08-5.01,4.19-6.45,3.89-13.25,7.71-20.85,3.83-7.19-3.67-7.99-11.09-8.37-18.12-.9-16.73,4.21-31.48,15.95-43.56,2.66-2.73,6.34-4.53,9.71-6.47,1.22-.71,3.19-1.05,4.34-.73,3.91,1.09,2.82,3.53,5,4.64,3.19,1.61,7.45-1.84,10.69,4.45,2.51,4.38,3.19,8.95,3.19,12.13ZM834.04,110.05c-13.12,8.38-21.68,27.24-19.07,41.96,2.07,11.71,6.75,13.84,16.52,6.76,11.5-8.33,15.13-20.45,14.57-34.08-.21-5.22,0-10.92-7.85-11.11-1.31-.03-2.57-2.12-4.16-3.52Z"></path><path d="M864.1,153.33c0-2.33,6.58-36.3,10.59-53.52,1.96-8.43,5.79-12.25,12.6-4.52,1.53,1.74,5.49,1.35,7.69.47,4.84-1.93,9.15-5.16,13.97-7.15,3.55-1.69,5.61-2.15,7.13.32,1.19,2.24.14,3.66-2.83,5.79-7.19,5.16-11.53,7.84-22.4,11.22-3.66,1.07-5.4-1.25-7.36,5.96-2.43,11.98-4.88,23.9-7.39,35.87-.2,1.63-.29,2.66-.43,4.4-.33,4.05-2.9,8.13-6.9,7.22-2.25-.51-4.66-3.73-4.66-6.06Z"></path><path d="M825.47,80.47c.32-5.99.87-7.92,2.34-10.72.74-1.42,3.2-3.57,4.56-3.39,2.32.32,3.5,1.79,3.61,3.54.2,3.35-2,4.25-.9,12.63.25,1.9-2.13,4.33-4.8,4.33-2.35-.34-4.41-2.01-4.8-6.39Z"></path><path d="M839.32,80.67c.39-4.38,2.64-8.32,5.27-11.33,1.07-1.23,4.88-4.21,7.55-.46,2.06,3.67-2.8,4.54-3.41,6.31-.84,2.42-1.48,3.46-1.87,8.7-.52,2.32-1.5,2.23-3.5,2.23-3.2-.36-4.04-3.9-4.04-5.45Z"></path><path d="M926.63,47.09c3.1.47,4.91,3.08,4.21,5.5-.49,1.71-2.38,3.96-4.65,4.03-1.67.05-4.26-2.61-4.47-4.31-.17-1.4,1.38-5,4.92-5.22Z"></path></svg> 